# xmcd CD database file
#
# Track frame offsets:
#	150
#	17547
#	35506
#	52902
#
# Disc length: 941 seconds
#
# Revision: 1
# Processed by: cddbd v1.5.2PL0 Copyright (c) Steve Scherf et al.
# Submitted via: CDex 1.70beta3
#
DISCID=2403ab04
DTITLE=涼宮ハルヒちゃん(平野綾)、長門有希(茅原実里)、朝比奈みくる(後藤邑子) - らくらく全手動空間
DYEAR=2011
DGENRE=Game
TTITLE0=らくらく全手動空間
TTITLE1=遊びの学びの静けさの
TTITLE2=らくらく全手動空間 (off vocal)
TTITLE3=遊びの学びの静けさの (off vocal)
EXTD=YEAR: 2011
EXTT0=
EXTT1=
EXTT2=
EXTT3=
PLAYORDER=
